<?xml version="1.0" standalone="no"?><!DOCTYPE svg PUBLIC "-//W3C//DTD SVG 1.1//EN" "http://www.w3.org/Graphics/SVG/1.1/DTD/svg11.dtd"><svg t="1754230880922" class="icon" viewBox="0 0 1024 1024" version="1.1" xmlns="http://www.w3.org/2000/svg" p-id="1477" xmlns:xlink="http://www.w3.org/1999/xlink" width="200" height="200"><path d="M513.7 141.5c-8.6 26.8-12.7 76.6-14.5 110.8-0.5 10.1-5 19.2-11.9 25.7s-16.1 10.5-26.3 10.5c-4.3 0-8.4-0.7-12.3-2-17.3-5.9-28.8-23.7-25.3-42.9 7-39.1 19.2-94.3 36.3-125.5 3.2-5.8 8-10.1 13.6-12.7 3.9-1.8 8-2.7 12.3-2.7 5.6 0 11.3 1.6 16.4 5 11.1 7.4 15.8 21.2 11.7 33.8z" fill="#AA7341" p-id="1478"></path><path d="M489.2 141.5c-8.6 26.8-12.7 76.6-14.5 110.8-0.5 10.1-5 19.2-11.9 25.7-4 3.8-8.7 6.7-14 8.5-17.3-5.9-28.8-23.7-25.3-42.9 7-39.1 19.2-94.3 36.3-125.5 3.2-5.8 8-10.1 13.6-12.7 1.4 0.6 2.8 1.4 4.2 2.3 11 7.4 15.7 21.2 11.6 33.8z" fill="#C18E5C" p-id="1479"></path><path d="M464.5 921.2l33-41.7 30 30 44.9-59.9 74.9 15v-74.9h74.9l-30-59.9 104.8-15-15-74.9 74.9-15L812 580l59.9-59.9-74.9-44.9 44.9-59.9-89.9-30 30-59.9-89.9-30v-74.9l-89.9 30-30-89.9-107.9 78.1-107.9-78.1-30 89.9-89.9-30v74.9l-89.9 30 30 59.9-89.9 30 44.9 59.9L57 520.1l59.9 59.9-42.8 70.2h70.7l-3.3 90.2 95.3-10.6-30 59.9h74.9v74.9l74.9-15 44.9 59.9 30-30c-0.1 0.1 33 41.7 33 41.7z" fill="#FFEC40" p-id="1480"></path><path d="M141.9 730l1.8-0.2-2 4z" fill="#FFEC40" p-id="1481"></path><path d="M856.9 625l-74.8 14.9 14.9 74.9-104.8 15 30 59.9h-74.9v74.9l-74.9-15-44.9 59.9-30-29.9-33 41.6-20-25.1 34.9-46.5 74.9 15v-74.9h74.9l-30-59.9 104.8-15-14.9-74.9 74.8-14.9-44.9-45 59.9-59.9-74.9-44.9 45-59.9-89.9-30 30-59.9-89.9-29.9-26.8-134.8 29.9 89.8 89.9-29.9v74.9l89.9 29.9-30 59.9 89.9 30-45 59.9 74.9 44.9L812 580z" fill="#EFC206" p-id="1482"></path><path d="M913.1 705.8l26.9 53.9h-83.9l3.1 78.2-67.3-24.3-11 69.4-69.8-29.1-40.4 67.3-40.4-53.9-53.9 40.4-13.4-67.3-67.3 13.5 4.7-72.3-72 4.9v-67.3H361l40.4-40.4-53.9-53.8H536c37.2 0 67.3 30.2 67.3 67.3 0-37.2 30.1-67.3 67.3-67.3 37.2 0 67.3 30.2 67.3 67.3 0-37.2 30.1-67.3 67.3-67.3H967l-53.9 80.8z" fill="#EFC206" p-id="1483"></path><path d="M859.3 625c0 96.7-78.4 175.1-175.1 175.1h-26.9c-96.7 0-175.1-78.4-175.1-175.1H536c37.2 0 67.3 30.2 67.3 67.3 0-37.2 30.1-67.3 67.3-67.3 37.2 0 67.3 30.2 67.3 67.3 0-37.2 30.1-67.3 67.3-67.3h54.1z" fill="#F8F1A6" p-id="1484"></path><path d="M657.2 800h26.9c18.3 0 36.5-2.9 53.9-8.5v-99.3c0-37.2-30.1-67.3-67.3-67.3s-67.3 30.1-67.3 67.3v99.3c17.4 5.6 35.6 8.5 53.8 8.5z" fill="#FCD770" opacity=".5" p-id="1485"></path></svg>